#N canvas 1 77 1366 691 10;
#X obj 43 219 *~ 0.5;
#X obj 91 64 delwrite~ \$0-phase1 500;
#X obj 43 196 delread~ \$0-phase1 500;
#X obj 16 22 inlet~;
#X obj 15 329 outlet~;
#X obj 101 102 cnv 15 198 55 empty empty Delay 20 12 0 14 -4032 -66577
0;
#X obj 123 131 hsl 128 15 0 500 0 0 empty empty empty -2 -8 0 10 -4034
-1 -1 700 1;
#X obj 78 288 *~;
#X obj 275 105 tgl 15 0 empty empty empty 17 7 0 10 -257985 -1 -1 1
1;
#X connect 0 0 7 0;
#X connect 2 0 0 0;
#X connect 3 0 1 0;
#X connect 3 0 4 0;
#X connect 6 0 2 0;
#X connect 7 0 4 0;
#X connect 8 0 7 1;
#X coords 0 -1 1 1 200 60 2 100 100;
