#N canvas 1 77 580 674 10;
#X obj 256 52 Phaser2;
#X obj 257 11 adc~;
#X obj 247 631 dac~;
#X obj 1 8 ../general/dsp_switch;
#X obj 257 582 ../general/amp;
#X obj 256 490 Delay;
#X obj 257 263 Reverb;
#X obj 33 292 ../general/recorder;
#X connect 0 0 6 0;
#X connect 1 0 0 0;
#X connect 4 0 2 0;
#X connect 4 0 2 1;
#X connect 4 0 7 0;
#X connect 4 0 7 1;
#X connect 5 0 4 0;
#X connect 6 0 5 0;
