#N canvas 0 77 1366 691 10;
#X obj 579 205 *~ 2;
#X obj 579 225 +~ 2;
#X obj 618 247 *~ 2;
#X obj 617 270 +~ 2;
#X obj 773 162 delwrite~ phase2 100;
#X obj 617 296 vd~ phase2;
#X obj 618 203 wrap~;
#X obj 588 148 phasor~;
#X obj 617 182 +~ 0.5;
#X obj 579 182 cos~;
#X obj 618 223 cos~;
#X obj 617 319 *~ 0.8;
#X obj 580 416 *~ 0.8;
#X obj 688 407 s~ output;
#X obj 446 346 r~ output;
#X obj 580 357 vd~ phase1;
#X obj 772 142 delwrite~ phase1 100;
#X floatatom 10 245 5 0 0 0 - - -, f 5;
#X floatatom 54 246 5 0 0 0 - - -, f 5;
#X floatatom 98 247 5 0 0 0 - - -, f 5;
#X obj 1 2 cnv 15 198 196 empty empty Phaser 20 12 0 14 -1 -257985
0;
#X text 337 12 adc~;
#X text 347 478 dac~;
#X obj 342 452 outlet~;
#X obj 335 36 inlet~;
#X obj 32 56 hsl 128 15 0 10 0 0 empty empty Speed -2 -8 0 10 -258113
-257985 -257985 0 1;
#X obj 33 97 hsl 128 15 0 3 0 0 empty empty Depth -2 -8 0 10 -258113
-257985 -257985 0 1;
#X obj 33 136 hsl 128 15 -0.9 0.9 0 0 empty empty Feedback -2 -8 0
10 -258113 -257985 -257985 0 1;
#X obj 145 9 tgl 20 0 empty empty empty 17 7 0 10 -260097 -1 -1 0 1
;
#X obj 402 404 *~;
#X connect 0 0 1 0;
#X connect 1 0 15 0;
#X connect 2 0 3 0;
#X connect 3 0 5 0;
#X connect 5 0 11 0;
#X connect 5 0 13 0;
#X connect 6 0 10 0;
#X connect 7 0 8 0;
#X connect 7 0 9 0;
#X connect 8 0 6 0;
#X connect 9 0 0 0;
#X connect 10 0 2 0;
#X connect 11 0 4 0;
#X connect 12 0 16 0;
#X connect 14 0 29 0;
#X connect 15 0 12 0;
#X connect 15 0 13 0;
#X connect 24 0 16 0;
#X connect 24 0 4 0;
#X connect 24 0 23 0;
#X connect 25 0 7 0;
#X connect 25 0 17 0;
#X connect 26 0 0 1;
#X connect 26 0 1 1;
#X connect 26 0 2 1;
#X connect 26 0 3 1;
#X connect 26 0 18 0;
#X connect 27 0 11 1;
#X connect 27 0 19 0;
#X connect 27 0 12 1;
#X connect 28 0 29 1;
#X connect 29 0 23 0;
#X coords 0 -1 1 1 200 200 2 0 0;
