#N canvas 1 77 694 567 10;
#X obj 295 344 freeverb~;
#X msg 332 54 roomsize \$1;
#X msg 331 115 damping \$1;
#X msg 327 185 wet \$1;
#X msg 326 206 dry \$1;
#X msg 345 275 freeze \$1;
#X msg 345 315 bypass \$1;
#X obj 155 139 tgl 15 0 empty empty Freeze 17 7 0 10 -262144 -1 -1
1 1;
#X obj 345 298 tgl 15 0 empty empty empty 17 7 0 10 -262144 -1 -1 0
1;
#X obj 30 259 hsl 128 15 0 1 0 0 empty empty Dry/Wet -2 -8 0 10 -4032
-1 -1 9200 1;
#X floatatom 456 167 5 0 0 0 - - -, f 5;
#X obj 387 189 expr 1-$f1;
#X obj 30 161 hsl 128 15 0 1 0 0 empty empty Roomsize -2 -8 0 10 -4034
-1 -1 6500 1;
#X obj 30 207 hsl 128 15 0 1 0 0 empty empty Damping_Level -2 -8 0
10 -260097 -1 -1 0 1;
#X floatatom 456 110 5 0 0 0 - - -, f 5;
#X floatatom 454 58 5 0 0 0 - - -, f 5;
#X text 436 264 Freeze the reverb;
#X text 436 324 the dry signal pass through.;
#X text 435 311 Trun the reverb off and let;
#X text 506 175 Wet signal to dry signal ratio;
#X text 506 191 (0 : all dry \, 1 : all wet);
#X text 507 110 Damping level;
#X text 506 56 Roomize;
#X text 341 460 Pierre Massat \, GuitarExtended \, 2012;
#X obj 247 44 inlet~;
#X obj 248 487 outlet~;
#X obj 294 429 *~;
#X obj 21 102 cnv 15 65 14 empty empty Reverb 5 7 0 14 -233017 -66577
0;
#X obj 152 106 tgl 25 0 empty empty empty 17 7 0 10 -262144 -1 -1 1
1;
#X connect 0 0 26 0;
#X connect 1 0 0 0;
#X connect 2 0 0 0;
#X connect 3 0 0 0;
#X connect 4 0 0 0;
#X connect 5 0 0 0;
#X connect 6 0 0 0;
#X connect 7 0 5 0;
#X connect 8 0 6 0;
#X connect 9 0 10 0;
#X connect 9 0 3 0;
#X connect 9 0 11 0;
#X connect 11 0 4 0;
#X connect 12 0 1 0;
#X connect 12 0 15 0;
#X connect 13 0 2 0;
#X connect 13 0 14 0;
#X connect 24 0 0 0;
#X connect 24 0 25 0;
#X connect 26 0 25 0;
#X connect 28 0 26 1;
#X coords 0 -1 1 1 200 200 2 20 100;
