#N canvas 58 126 450 300 10;
#X obj 100 100 tgl 30 0 empty \$1 DSP 7 15 0 10 -260097 -1 -1 0 1;
#X msg 100 156 \; pd dsp \$1;
#X obj 101 38 loadbang;
#X msg 101 60 0;
#X connect 0 0 1 0;
#X connect 2 0 3 0;
#X connect 3 0 0 0;
#X coords 0 -1 1 1 30 30 2 100 100;
