#N canvas 0 77 1366 691 10;
#X obj 100 102 cnv 15 199 196 empty empty MIDI_IN 20 12 0 14 -159808
-1 0;
#X obj 131 154 hsl 128 15 0 127 0 0 \$0-note-send \$0-note-recv Note:67
5 8 0 10 -162280 -1 -1 6700 1;
#X obj 131 174 hsl 128 15 0 127 0 0 \$0-vel-send \$0-vel-recv Vel:84
5 8 0 10 -162280 -1 -1 8400 1;
#X obj 221 136 nbx 2 14 1 16 0 0 empty empty Channel 0 -8 0 10 -162280
-1 -1 1 256;
#X obj 131 234 hsl 128 15 0 16383 0 0 \$0-pb-send \$0-pb-recv PB:8192
5 8 0 10 -162280 -1 -1 6350 1;
#X obj 131 254 hsl 128 15 0 127 0 0 \$0-mod-send \$0-mod-recv MOD:74
5 8 0 10 -162280 -1 -1 0 1;
#N canvas 1 77 450 300 send-recv 0;
#X obj 9 20 r \$0-note-send;
#X msg 9 42 label Note:\$1;
#X obj 9 64 s \$0-note-recv;
#X obj 129 20 r \$0-vel-send;
#X msg 129 42 label Vel:\$1;
#X obj 129 64 s \$0-vel-recv;
#X obj 239 20 r \$0-pb-send;
#X msg 239 42 label PB:\$1;
#X obj 239 64 s \$0-pb-recv;
#X obj 339 20 r \$0-mod-send;
#X msg 339 42 label MOD:\$1;
#X obj 339 64 s \$0-mod-recv;
#X connect 0 0 1 0;
#X connect 1 0 2 0;
#X connect 3 0 4 0;
#X connect 4 0 5 0;
#X connect 6 0 7 0;
#X connect 7 0 8 0;
#X connect 9 0 10 0;
#X connect 10 0 11 0;
#X restore 101 78 pd send-recv;
#X obj 342 11 notein;
#X floatatom 331 48 3 1 127 2 N - -, f 3;
#X floatatom 361 48 3 1 127 2 V - -, f 3;
#X floatatom 391 48 3 1 127 2 C - -, f 3;
#X obj 475 9 bendin;
#X floatatom 476 48 3 1 127 2 V - -, f 3;
#X floatatom 514 48 3 1 127 2 C - -, f 3;
#X obj 555 470 midi_channel_filter;
#X obj 332 91 midi_channel_filter;
#X obj 387 141 midi_channel_filter;
#X floatatom 566 48 3 1 127 2 V - -, f 3;
#X floatatom 604 48 3 1 127 2 C - -, f 3;
#X obj 563 8 ctlin 1;
#X obj 603 196 midi_channel_filter;
#X obj 201 27 loadbang;
#X msg 46 235 8192;
#X obj 44 25 inlet;
#X obj 88 25 inlet;
#X obj 134 25 inlet;
#X obj 110 402 outlet;
#X obj 168 402 outlet;
#X obj 221 402 outlet;
#X connect 1 0 26 0;
#X connect 2 0 27 0;
#X connect 3 0 14 2;
#X connect 3 0 15 2;
#X connect 3 0 16 2;
#X connect 3 0 20 2;
#X connect 3 0 28 0;
#X connect 7 0 8 0;
#X connect 7 1 9 0;
#X connect 7 2 10 0;
#X connect 8 0 15 0;
#X connect 9 0 16 0;
#X connect 10 0 15 1;
#X connect 10 0 16 1;
#X connect 11 0 12 0;
#X connect 11 1 13 0;
#X connect 12 0 14 0;
#X connect 13 0 14 1;
#X connect 14 0 4 0;
#X connect 15 0 1 0;
#X connect 16 0 2 0;
#X connect 17 0 20 0;
#X connect 18 0 20 1;
#X connect 19 0 17 0;
#X connect 19 1 18 0;
#X connect 20 0 5 0;
#X connect 21 0 3 0;
#X connect 21 0 22 0;
#X connect 22 0 4 0;
#X connect 23 0 1 0;
#X connect 24 0 2 0;
#X connect 25 0 3 0;
#X coords 0 -1 1 1 200 200 2 100 100;
