#N canvas 832 338 450 300 10;
#X obj 38 76 phasor~;
#X obj 137 201 dac~;
#X obj 54 3 hsl 128 15 0 100 0 0 empty empty empty -2 -8 0 10 -262144
-1 -1 8800 1;
#X obj 51 34 sig~;
#X obj 126 127 *~ 0.5;
#X obj 194 89 phasor~;
#X obj 210 16 hsl 128 15 0 100 0 0 empty empty empty -2 -8 0 10 -262144
-1 -1 500 1;
#X obj 207 47 sig~;
#X obj 271 56 hsl 128 15 0 300 0 0 empty empty empty -2 -8 0 10 -262144
-1 -1 5800 1;
#X obj 318 97 osc~;
#X connect 0 0 4 0;
#X connect 2 0 3 0;
#X connect 3 0 0 0;
#X connect 4 0 1 0;
#X connect 4 0 1 1;
#X connect 5 0 4 0;
#X connect 6 0 7 0;
#X connect 7 0 5 0;
#X connect 8 0 9 0;
#X connect 9 0 4 0;
